<?xml version="1.0" encoding="UTF-8" standalone="no"?>
<!DOCTYPE svg PUBLIC "-//W3C//DTD SVG 1.1//EN"
 "http://www.w3.org/Graphics/SVG/1.1/DTD/svg11.dtd">
<!-- Generated by graphviz version 2.38.0 (20140413.2041)
 -->
<!-- Title: test Pages: 1 -->
<svg width="258pt" height="70pt"
 viewBox="0.00 0.00 258.27 70.00" xmlns="http://www.w3.org/2000/svg" xmlns:xlink="http://www.w3.org/1999/xlink">
<g id="graph0" class="graph" transform="scale(1 1) rotate(0) translate(4 66)">
<title>test</title>
<polygon fill="white" stroke="none" points="-4,4 -4,-66 254.269,-66 254.269,4 -4,4"/>
<!-- node1 -->
<g id="node1" class="node"><title>node1</title>
<polygon fill="white" stroke="black" points="120.269,-0.5 120.269,-61.5 250.269,-61.5 250.269,-0.5 120.269,-0.5"/>
<text text-anchor="middle" x="185.269" y="-46.3" font-family="Times,serif" font-size="14.00">Categories</text>
<polyline fill="none" stroke="black" points="120.269,-38.5 250.269,-38.5 "/>
<text text-anchor="start" x="128.269" y="-23.3" font-family="Times,serif" font-size="14.00">&#45; media integer [FK]</text>
<text text-anchor="start" x="128.269" y="-8.3" font-family="Times,serif" font-size="14.00">&#45; id integer [PK]</text>
</g>
<!-- node2 -->
<g id="node2" class="node"><title>node2</title>
<polygon fill="white" stroke="black" points="-1.42109e-14,-8 -1.42109e-14,-54 107,-54 107,-8 -1.42109e-14,-8"/>
<text text-anchor="middle" x="53.5" y="-38.8" font-family="Times,serif" font-size="14.00">Media</text>
<polyline fill="none" stroke="black" points="-1.42109e-14,-31 107,-31 "/>
<text text-anchor="start" x="8" y="-15.8" font-family="Times,serif" font-size="14.00">&#45; id integer [PK]</text>
</g>
<!-- node2&#45;&gt;node1 -->
<g id="edge1" class="edge"><title>node2&#45;&gt;node1</title>
<path fill="none" stroke="black" d="M107.095,-31C108.031,-31 108.969,-31 109.911,-31"/>
<polygon fill="black" stroke="black" points="110.06,-34.5001 120.06,-31 110.06,-27.5001 110.06,-34.5001"/>
</g>
</g>
</svg>
